<mxfile host="app.diagrams.net" modified="2022-10-28T04:10:54.955Z" agent="5.0 (Windows)" etag="RwtFBM0K8ecoU1QMcV9H" version="20.5.1" type="github">
  <diagram name="Page-1" id="efa7a0a1-bf9b-a30e-e6df-94a7791c09e9">
    <mxGraphModel dx="868" dy="468" grid="1" gridSize="10" guides="1" tooltips="1" connect="1" arrows="1" fold="1" page="1" pageScale="1" pageWidth="826" pageHeight="1169" background="none" math="0" shadow="0">
      <root>
        <mxCell id="0" />
        <mxCell id="1" parent="0" />
        <mxCell id="ebfX2xSwdslehIs39QLn-114" value="People" style="swimlane;fontStyle=0;childLayout=stackLayout;horizontal=1;startSize=30;horizontalStack=0;resizeParent=1;resizeParentMax=0;resizeLast=0;collapsible=1;marginBottom=0;fillColor=#fff2cc;strokeColor=#d6b656;" parent="1" vertex="1">
          <mxGeometry x="670" y="525" width="140" height="180" as="geometry" />
        </mxCell>
        <mxCell id="ebfX2xSwdslehIs39QLn-123" value="&lt;div align=&quot;center&quot;&gt;&lt;b&gt;ID&lt;/b&gt;&lt;/div&gt;" style="text;html=1;align=center;verticalAlign=middle;resizable=0;points=[];autosize=1;strokeColor=none;fillColor=none;" parent="ebfX2xSwdslehIs39QLn-114" vertex="1">
          <mxGeometry y="30" width="140" height="30" as="geometry" />
        </mxCell>
        <mxCell id="ebfX2xSwdslehIs39QLn-129" value="Name" style="text;html=1;align=center;verticalAlign=middle;resizable=0;points=[];autosize=1;strokeColor=none;fillColor=none;" parent="ebfX2xSwdslehIs39QLn-114" vertex="1">
          <mxGeometry y="60" width="140" height="30" as="geometry" />
        </mxCell>
        <mxCell id="ebfX2xSwdslehIs39QLn-130" value="Fam" style="text;html=1;align=center;verticalAlign=middle;resizable=0;points=[];autosize=1;strokeColor=none;fillColor=none;" parent="ebfX2xSwdslehIs39QLn-114" vertex="1">
          <mxGeometry y="90" width="140" height="30" as="geometry" />
        </mxCell>
        <mxCell id="ebfX2xSwdslehIs39QLn-131" value="Last_name" style="text;html=1;align=center;verticalAlign=middle;resizable=0;points=[];autosize=1;strokeColor=none;fillColor=none;" parent="ebfX2xSwdslehIs39QLn-114" vertex="1">
          <mxGeometry y="120" width="140" height="30" as="geometry" />
        </mxCell>
        <mxCell id="ebfX2xSwdslehIs39QLn-132" value="Num_phone" style="text;html=1;align=center;verticalAlign=middle;resizable=0;points=[];autosize=1;strokeColor=none;fillColor=none;" parent="ebfX2xSwdslehIs39QLn-114" vertex="1">
          <mxGeometry y="150" width="140" height="30" as="geometry" />
        </mxCell>
        <mxCell id="wyc7OIWixu-rkBDjUx6X-9" style="edgeStyle=orthogonalEdgeStyle;rounded=0;orthogonalLoop=1;jettySize=auto;html=1;exitX=1.021;exitY=0.5;exitDx=0;exitDy=0;entryX=0.014;entryY=0.433;entryDx=0;entryDy=0;entryPerimeter=0;exitPerimeter=0;" edge="1" parent="1" source="ebfX2xSwdslehIs39QLn-137" target="ebfX2xSwdslehIs39QLn-123">
          <mxGeometry relative="1" as="geometry" />
        </mxCell>
        <mxCell id="ebfX2xSwdslehIs39QLn-124" value="Prodazhi" style="swimlane;fontStyle=0;childLayout=stackLayout;horizontal=1;startSize=30;horizontalStack=0;resizeParent=1;resizeParentMax=0;resizeLast=0;collapsible=1;marginBottom=0;fillColor=#d5e8d4;strokeColor=#82b366;" parent="1" vertex="1">
          <mxGeometry x="400" y="525" width="140" height="180" as="geometry" />
        </mxCell>
        <mxCell id="ebfX2xSwdslehIs39QLn-125" value="&lt;div align=&quot;center&quot;&gt;&lt;b&gt;ID&lt;/b&gt;&lt;/div&gt;" style="text;html=1;align=center;verticalAlign=middle;resizable=0;points=[];autosize=1;strokeColor=none;fillColor=none;" parent="ebfX2xSwdslehIs39QLn-124" vertex="1">
          <mxGeometry y="30" width="140" height="30" as="geometry" />
        </mxCell>
        <mxCell id="ebfX2xSwdslehIs39QLn-137" value="id_pokupatel" style="text;html=1;align=center;verticalAlign=middle;resizable=0;points=[];autosize=1;strokeColor=none;fillColor=none;" parent="ebfX2xSwdslehIs39QLn-124" vertex="1">
          <mxGeometry y="60" width="140" height="30" as="geometry" />
        </mxCell>
        <mxCell id="ebfX2xSwdslehIs39QLn-138" value="id_prodavec" style="text;html=1;align=center;verticalAlign=middle;resizable=0;points=[];autosize=1;strokeColor=none;fillColor=none;" parent="ebfX2xSwdslehIs39QLn-124" vertex="1">
          <mxGeometry y="90" width="140" height="30" as="geometry" />
        </mxCell>
        <mxCell id="wyc7OIWixu-rkBDjUx6X-6" value="sum" style="text;html=1;align=center;verticalAlign=middle;resizable=0;points=[];autosize=1;strokeColor=none;fillColor=none;" vertex="1" parent="ebfX2xSwdslehIs39QLn-124">
          <mxGeometry y="120" width="140" height="30" as="geometry" />
        </mxCell>
        <mxCell id="wyc7OIWixu-rkBDjUx6X-7" value="date" style="text;html=1;align=center;verticalAlign=middle;resizable=0;points=[];autosize=1;strokeColor=none;fillColor=none;" vertex="1" parent="ebfX2xSwdslehIs39QLn-124">
          <mxGeometry y="150" width="140" height="30" as="geometry" />
        </mxCell>
      </root>
    </mxGraphModel>
  </diagram>
</mxfile>
